<svg xmlns="http://www.w3.org/2000/svg" viewBox="0 0 64 64" fill="none">
  <defs>
    <linearGradient id="g1" x1="8" y1="8" x2="56" y2="56" gradientUnits="userSpaceOnUse">
      <stop offset="0" stop-color="#2563eb"/>
      <stop offset="1" stop-color="#7c3aed"/>
    </linearGradient>
  </defs>
  <rect x="2" y="2" width="60" height="60" rx="14" fill="#0f172a"/>
  <path d="M25 13a10 10 0 0 0-10 10v1a8 8 0 0 0-6 8 8 8 0 0 0 5.4 7.6A9.8 9.8 0 0 0 24 52h8V19.8A6.8 6.8 0 0 0 25 13Z" stroke="url(#g1)" stroke-width="3" stroke-linejoin="round"/>
  <path d="M39 13a10 10 0 0 1 10 10v1a8 8 0 0 1 6 8 8 8 0 0 1-5.4 7.6A9.8 9.8 0 0 1 40 52h-8V19.8a6.8 6.8 0 0 1 7-6.8Z" stroke="url(#g1)" stroke-width="3" stroke-linejoin="round"/>
  <path d="M21 28h4M21 35h4M39 28h4M39 35h4" stroke="#93c5fd" stroke-width="2.6" stroke-linecap="round"/>
</svg>
